<svg width="16" height="16" viewBox="0 0 16 16" version="1.1" xmlns="http://www.w3.org/2000/svg" xmlns:xlink="http://www.w3.org/1999/xlink">
<g id="Canvas" >
<g id="Vector">
<use xlink:href="#icon-search" fill="#9BA1A5"/>
</g>
</g>
<defs>
<path id="icon-search" d="M 10.4167 9.16667L 9.75833 9.16667L 9.525 8.94167C 10.3417 7.99167 10.8333 6.75833 10.8333 5.41667C 10.8333 2.425 8.40833 0 5.41667 0C 2.425 0 0 2.425 0 5.41667C 0 8.40833 2.425 10.8333 5.41667 10.8333C 6.75833 10.8333 7.99167 10.3417 8.94167 9.525L 9.16667 9.75833L 9.16667 10.4167L 13.3333 14.575L 14.575 13.3333L 10.4167 9.16667ZM 5.41667 9.16667C 3.34167 9.16667 1.66667 7.49167 1.66667 5.41667C 1.66667 3.34167 3.34167 1.66667 5.41667 1.66667C 7.49167 1.66667 9.16667 3.34167 9.16667 5.41667C 9.16667 7.49167 7.49167 9.16667 5.41667 9.16667Z"/>
</defs>
</svg>


