<svg width="18" height="18" viewBox="0 0 18 18" version="1.1" xmlns="http://www.w3.org/2000/svg" xmlns:xlink="http://www.w3.org/1999/xlink">
<g id="Canvas" transform="translate(-1978 -527)">
<g id="Vector">
<use xlink:href="#icon-emodzi" transform="translate(1978.67 527.667)" fill="#8F9092"/>
</g>
</g>
<defs>
<path id="icon-emodzi" d="M 8.325 0C 3.725 0 0 3.73333 0 8.33333C 0 12.9333 3.725 16.6667 8.325 16.6667C 12.9333 16.6667 16.6667 12.9333 16.6667 8.33333C 16.6667 3.73333 12.9333 0 8.325 0ZM 8.33333 15C 4.65 15 1.66667 12.0167 1.66667 8.33333C 1.66667 4.65 4.65 1.66667 8.33333 1.66667C 12.0167 1.66667 15 4.65 15 8.33333C 15 12.0167 12.0167 15 8.33333 15ZM 11.25 7.5C 11.9417 7.5 12.5 6.94167 12.5 6.25C 12.5 5.55833 11.9417 5 11.25 5C 10.5583 5 10 5.55833 10 6.25C 10 6.94167 10.5583 7.5 11.25 7.5ZM 5.41667 7.5C 6.10833 7.5 6.66667 6.94167 6.66667 6.25C 6.66667 5.55833 6.10833 5 5.41667 5C 4.725 5 4.16667 5.55833 4.16667 6.25C 4.16667 6.94167 4.725 7.5 5.41667 7.5ZM 8.33333 12.9167C 10.275 12.9167 11.925 11.7 12.5917 10L 4.075 10C 4.74167 11.7 6.39167 12.9167 8.33333 12.9167Z"/>
</defs>
</svg>