<svg width="10" height="20" viewBox="0 0 10 20" version="1.1" xmlns="http://www.w3.org/2000/svg" xmlns:xlink="http://www.w3.org/1999/xlink">
<g id="Canvas" transform="translate(-1491 -526)">
<g id="Vector">
<use xlink:href="#icon-add-file" transform="translate(1491.83 526.833)" fill="#8F9092"/>
</g>
</g>
<defs>
<path id="icon-add-file" d="M 7.91667 4.16667L 7.91667 13.75C 7.91667 15.5917 6.425 17.0833 4.58333 17.0833C 2.74167 17.0833 1.25 15.5917 1.25 13.75L 1.25 3.33333C 1.25 2.18333 2.18333 1.25 3.33333 1.25C 4.48333 1.25 5.41667 2.18333 5.41667 3.33333L 5.41667 12.0833C 5.41667 12.5417 5.04167 12.9167 4.58333 12.9167C 4.125 12.9167 3.75 12.5417 3.75 12.0833L 3.75 4.16667L 2.5 4.16667L 2.5 12.0833C 2.5 13.2333 3.43333 14.1667 4.58333 14.1667C 5.73333 14.1667 6.66667 13.2333 6.66667 12.0833L 6.66667 3.33333C 6.66667 1.49167 5.175 0 3.33333 0C 1.49167 0 0 1.49167 0 3.33333L 0 13.75C 0 16.2833 2.05 18.3333 4.58333 18.3333C 7.11667 18.3333 9.16667 16.2833 9.16667 13.75L 9.16667 4.16667L 7.91667 4.16667Z"/>
</defs>
</svg>

