<svg width="88" height="25" viewBox="0 0 88 25" version="1.1" xmlns="http://www.w3.org/2000/svg" xmlns:xlink="http://www.w3.org/1999/xlink">
<g id="Canvas" transform="translate(-1173 190)">
<g id="Chatty">
<use xlink:href="#logo" transform="translate(1173 -199)" fill="#FFFFFF"/>
</g>
</g>
<defs>
<path id="logo" d="M 3.312 24.72C 1.648 23.088 0.816 21.024 0.816 18.528C 0.816 16.032 1.648 13.976 3.312 12.36C 4.992 10.728 7.04 9.912 9.456 9.912C 11.328 9.912 12.992 10.408 14.448 11.4C 15.904 12.392 16.92 13.768 17.496 15.528L 12.6 15.528C 11.96 14.296 10.936 13.68 9.528 13.68C 8.12 13.68 7.008 14.12 6.192 15C 5.392 15.88 4.992 17.056 4.992 18.528C 4.992 20 5.392 21.176 6.192 22.056C 7.008 22.936 8.12 23.376 9.528 23.376C 10.936 23.376 11.96 22.76 12.6 21.528L 17.496 21.528C 16.92 23.288 15.904 24.664 14.448 25.656C 12.992 26.648 11.328 27.144 9.456 27.144C 7.04 27.144 4.992 26.336 3.312 24.72ZM 24.2321 9.24L 24.2321 15.576C 25.0801 14.168 26.4321 13.464 28.2881 13.464C 29.8241 13.464 31.0641 13.976 32.0081 15C 32.9681 16.024 33.4481 17.416 33.4481 19.176L 33.4481 27L 29.3681 27L 29.3681 19.728C 29.3681 18.864 29.1361 18.2 28.6721 17.736C 28.2241 17.256 27.6001 17.016 26.8001 17.016C 26.0001 17.016 25.3681 17.256 24.9041 17.736C 24.4561 18.2 24.2321 18.864 24.2321 19.728L 24.2321 27L 20.1281 27L 20.1281 9.24L 24.2321 9.24ZM 45.0928 22.752C 45.6848 22.176 45.9808 21.36 45.9808 20.304C 45.9808 19.248 45.6848 18.44 45.0928 17.88C 44.5008 17.304 43.8208 17.016 43.0528 17.016C 42.2848 17.016 41.6048 17.304 41.0128 17.88C 40.4208 18.456 40.1248 19.272 40.1248 20.328C 40.1248 21.384 40.4208 22.2 41.0128 22.776C 41.6048 23.336 42.2848 23.616 43.0528 23.616C 43.8208 23.616 44.5008 23.328 45.0928 22.752ZM 37.7248 25.248C 36.5408 23.968 35.9488 22.328 35.9488 20.328C 35.9488 18.328 36.5408 16.688 37.7248 15.408C 38.9088 14.112 40.3488 13.464 42.0448 13.464C 43.7568 13.464 45.0688 14.096 45.9808 15.36L 45.9808 13.608L 50.0848 13.608L 50.0848 27L 45.9808 27L 45.9808 25.056C 44.9888 26.464 43.6608 27.168 41.9968 27.168C 40.3328 27.168 38.9088 26.528 37.7248 25.248ZM 59.3786 23.52L 60.8426 23.52L 60.8426 27L 58.7546 27C 57.2506 27 56.0826 26.672 55.2506 26.016C 54.4346 25.344 54.0266 24.2 54.0266 22.584L 54.0266 17.016L 52.7786 17.016L 52.7786 13.608L 54.0266 13.608L 54.0266 10.344L 58.1306 10.344L 58.1306 13.608L 60.8186 13.608L 60.8186 17.016L 58.1306 17.016L 58.1306 22.584C 58.1306 23.208 58.5466 23.52 59.3786 23.52ZM 69.3396 23.52L 70.8036 23.52L 70.8036 27L 68.7156 27C 67.2116 27 66.0436 26.672 65.2116 26.016C 64.3956 25.344 63.9876 24.2 63.9876 22.584L 63.9876 17.016L 62.7396 17.016L 62.7396 13.608L 63.9876 13.608L 63.9876 10.344L 68.0916 10.344L 68.0916 13.608L 70.7796 13.608L 70.7796 17.016L 68.0916 17.016L 68.0916 22.584C 68.0916 23.208 68.5076 23.52 69.3396 23.52ZM 77.1165 26.736L 71.9085 13.608L 76.5645 13.608L 79.5405 22.368L 82.8045 13.608L 87.1005 13.608L 78.5565 33.384L 74.2605 33.384L 77.1165 26.736Z"/>
</defs>
</svg>
