<svg xmlns="http://www.w3.org/2000/svg" xmlns:xlink="http://www.w3.org/1999/xlink" style="display:none"><defs><path id="a" d="M7.917 4.167v9.583a3.332 3.332 0 0 1-3.334 3.333A3.332 3.332 0 0 1 1.25 13.75V3.333a2.084 2.084 0 0 1 4.167 0v8.75a.836.836 0 0 1-.834.834.836.836 0 0 1-.833-.834V4.167H2.5v7.916a2.084 2.084 0 0 0 4.167 0v-8.75a3.332 3.332 0 1 0-6.667 0V13.75a4.58 4.58 0 0 0 4.583 4.583 4.58 4.58 0 0 0 4.584-4.583V4.167h-1.25z"/><path id="a" d="M4.658 8.817L1.183 5.342 0 6.517l4.658 4.658 10-10L13.483 0 4.658 8.817z"/><path id="a" d="M0 11.877v3.125h3.125l9.217-9.217L9.217 2.66 0 11.877zM14.758 3.37a.83.83 0 0 0 0-1.175l-1.95-1.95a.83.83 0 0 0-1.175 0l-1.525 1.525 3.125 3.125 1.525-1.525z"/><path id="a" d="M8.325 0C3.725 0 0 3.733 0 8.333s3.725 8.334 8.325 8.334c4.608 0 8.342-3.734 8.342-8.334S12.933 0 8.325 0zm.008 15a6.665 6.665 0 0 1-6.666-6.667 6.665 6.665 0 0 1 6.666-6.666A6.665 6.665 0 0 1 15 8.333 6.665 6.665 0 0 1 8.333 15zm2.917-7.5c.692 0 1.25-.558 1.25-1.25S11.942 5 11.25 5 10 5.558 10 6.25s.558 1.25 1.25 1.25zm-5.833 0c.691 0 1.25-.558 1.25-1.25S6.108 5 5.417 5c-.692 0-1.25.558-1.25 1.25s.558 1.25 1.25 1.25zm2.916 5.417A4.58 4.58 0 0 0 12.592 10H4.075a4.58 4.58 0 0 0 4.258 2.917z"/><path id="a" d="M10.417 9.167h-.659l-.233-.225a5.393 5.393 0 0 0 1.308-3.525 5.416 5.416 0 1 0-5.416 5.416 5.393 5.393 0 0 0 3.525-1.308l.225.233v.659l4.166 4.158 1.242-1.242-4.158-4.166zm-5 0a3.745 3.745 0 0 1-3.75-3.75 3.745 3.745 0 0 1 3.75-3.75 3.745 3.745 0 0 1 3.75 3.75 3.745 3.745 0 0 1-3.75 3.75z"/><path id="a" d="M0 12C0 5.373 5.373 0 12 0s12 5.373 12 12-5.373 12-12 12S0 18.627 0 12z"/><path id="a" d="M8.333 0A8.336 8.336 0 0 0 0 8.333c0 4.6 3.733 8.334 8.333 8.334s8.334-3.734 8.334-8.334S12.933 0 8.333 0zm0 2.5c1.384 0 2.5 1.117 2.5 2.5s-1.116 2.5-2.5 2.5a2.497 2.497 0 0 1-2.5-2.5c0-1.383 1.117-2.5 2.5-2.5zm0 11.833a6 6 0 0 1-5-2.683c.025-1.658 3.334-2.567 5-2.567 1.659 0 4.975.909 5 2.567a6 6 0 0 1-5 2.683z"/><path id="a" d="M3.312 24.72C1.648 23.088.816 21.024.816 18.528s.832-4.552 2.496-6.168c1.68-1.632 3.728-2.448 6.144-2.448 1.872 0 3.536.496 4.992 1.488s2.472 2.368 3.048 4.128H12.6c-.64-1.232-1.664-1.848-3.072-1.848-1.408 0-2.52.44-3.336 1.32-.8.88-1.2 2.056-1.2 3.528s.4 2.648 1.2 3.528c.816.88 1.928 1.32 3.336 1.32s2.432-.616 3.072-1.848h4.896c-.576 1.76-1.592 3.136-3.048 4.128s-3.12 1.488-4.992 1.488c-2.416 0-4.464-.808-6.144-2.424zm20.92-15.48v6.336c.848-1.408 2.2-2.112 4.056-2.112 1.536 0 2.776.512 3.72 1.536.96 1.024 1.44 2.416 1.44 4.176V27h-4.08v-7.272c0-.864-.232-1.528-.696-1.992-.448-.48-1.072-.72-1.872-.72s-1.432.24-1.896.72c-.448.464-.672 1.128-.672 1.992V27h-4.104V9.24h4.104zm20.86 13.512c.593-.576.889-1.392.889-2.448s-.296-1.864-.888-2.424c-.592-.576-1.272-.864-2.04-.864s-1.448.288-2.04.864c-.592.576-.888 1.392-.888 2.448s.296 1.872.888 2.448c.592.56 1.272.84 2.04.84s1.448-.288 2.04-.864zm-7.367 2.496c-1.184-1.28-1.776-2.92-1.776-4.92s.592-3.64 1.776-4.92c1.184-1.296 2.624-1.944 4.32-1.944 1.712 0 3.024.632 3.936 1.896v-1.752h4.104V27H45.98v-1.944c-.992 1.408-2.32 2.112-3.984 2.112-1.664 0-3.088-.64-4.272-1.92zm21.654-1.728h1.464V27h-2.088c-1.504 0-2.672-.328-3.504-.984-.816-.672-1.224-1.816-1.224-3.432v-5.568h-1.248v-3.408h1.248v-3.264h4.104v3.264h2.688v3.408H58.13v5.568c0 .624.416.936 1.248.936zm9.96 0h1.465V27h-2.088c-1.504 0-2.672-.328-3.504-.984-.816-.672-1.224-1.816-1.224-3.432v-5.568H62.74v-3.408h1.248v-3.264h4.104v3.264h2.688v3.408h-2.688v5.568c0 .624.416.936 1.248.936zm7.778 3.216l-5.209-13.128h4.656l2.977 8.76 3.264-8.76H87.1l-8.543 19.776H74.26l2.856-6.648z"/></defs><symbol id="icon-add-file" viewbox="0 0 10 20"><use xlink:href="#a" transform="translate(.83 .833)" fill="#8F9092"/></symbol><symbol id="icon-check" viewbox="0 0 16 12"><use xlink:href="#a" transform="translate(.84 .658)" fill="#9BA1A5"/></symbol><symbol id="icon-dots" viewbox="-27.5 -27.5 55 55"><circle r="4.5" fill="#9EA4A8"/><circle r="4.5" cy="-14" fill="#9EA4A8"/><circle r="4.5" cy="14" fill="#9EA4A8"/></symbol><symbol id="icon-edit" viewbox="0 0 16 16"><use xlink:href="#a" transform="translate(.5 .498)" fill="#FFF"/></symbol><symbol id="icon-emodzi" viewbox="0 0 18 18"><use xlink:href="#a" transform="translate(.67 .667)" fill="#8F9092"/></symbol><symbol id="icon-search" viewbox="0 0 16 16"><use xlink:href="#a" fill="#9BA1A5"/></symbol><symbol id="icon-send" viewbox="0 0 24 24"><use xlink:href="#a" fill="#00E676"/></symbol><symbol id="icon-user" viewbox="0 0 18 18"><use xlink:href="#a" transform="translate(.67 .667)" fill="#FFF"/></symbol><symbol id="logo" viewbox="0 0 88 25"><use xlink:href="#a" transform="translate(0 -9)" fill="#FFF"/></symbol></svg>