<svg width="18" height="18" viewBox="0 0 18 18" xmlns="http://www.w3.org/2000/svg" xmlns:xlink="http://www.w3.org/1999/xlink"><use xlink:href="#a" transform="translate(.67 .667)" fill="#FFF"/><defs><path id="a" d="M8.333 0A8.336 8.336 0 0 0 0 8.333c0 4.6 3.733 8.334 8.333 8.334s8.334-3.734 8.334-8.334S12.933 0 8.333 0zm0 2.5c1.384 0 2.5 1.117 2.5 2.5s-1.116 2.5-2.5 2.5a2.497 2.497 0 0 1-2.5-2.5c0-1.383 1.117-2.5 2.5-2.5zm0 11.833a6 6 0 0 1-5-2.683c.025-1.658 3.334-2.567 5-2.567 1.659 0 4.975.909 5 2.567a6 6 0 0 1-5 2.683z"/></defs></svg>