<svg width="18" height="18" viewBox="0 0 18 18" xmlns="http://www.w3.org/2000/svg" xmlns:xlink="http://www.w3.org/1999/xlink"><use xlink:href="#a" transform="translate(.67 .667)" fill="#8F9092"/><defs><path id="a" d="M8.325 0C3.725 0 0 3.733 0 8.333s3.725 8.334 8.325 8.334c4.608 0 8.342-3.734 8.342-8.334S12.933 0 8.325 0zm.008 15a6.665 6.665 0 0 1-6.666-6.667 6.665 6.665 0 0 1 6.666-6.666A6.665 6.665 0 0 1 15 8.333 6.665 6.665 0 0 1 8.333 15zm2.917-7.5c.692 0 1.25-.558 1.25-1.25S11.942 5 11.25 5 10 5.558 10 6.25s.558 1.25 1.25 1.25zm-5.833 0c.691 0 1.25-.558 1.25-1.25S6.108 5 5.417 5c-.692 0-1.25.558-1.25 1.25s.558 1.25 1.25 1.25zm2.916 5.417A4.58 4.58 0 0 0 12.592 10H4.075a4.58 4.58 0 0 0 4.258 2.917z"/></defs></svg>