<svg width="10" height="20" viewBox="0 0 10 20" xmlns="http://www.w3.org/2000/svg" xmlns:xlink="http://www.w3.org/1999/xlink"><use xlink:href="#a" transform="translate(.83 .833)" fill="#8F9092"/><defs><path id="a" d="M7.917 4.167v9.583a3.332 3.332 0 0 1-3.334 3.333A3.332 3.332 0 0 1 1.25 13.75V3.333a2.084 2.084 0 0 1 4.167 0v8.75a.836.836 0 0 1-.834.834.836.836 0 0 1-.833-.834V4.167H2.5v7.916a2.084 2.084 0 0 0 4.167 0v-8.75a3.332 3.332 0 1 0-6.667 0V13.75a4.58 4.58 0 0 0 4.583 4.583 4.58 4.58 0 0 0 4.584-4.583V4.167h-1.25z"/></defs></svg>