
<svg width="18" height="18" viewBox="0 0 18 18" version="1.1" xmlns="http://www.w3.org/2000/svg" xmlns:xlink="http://www.w3.org/1999/xlink">
<g id="Canvas" transform="translate(-1387 189)">
<g id="Vector">
<use xlink:href="#icon-user" transform="translate(1387.67 -188.333)" fill="#FFFFFF"/>
</g>
</g>
<defs>
<path id="icon-user" d="M 8.33333 0C 3.73333 0 0 3.73333 0 8.33333C 0 12.9333 3.73333 16.6667 8.33333 16.6667C 12.9333 16.6667 16.6667 12.9333 16.6667 8.33333C 16.6667 3.73333 12.9333 0 8.33333 0ZM 8.33333 2.5C 9.71667 2.5 10.8333 3.61667 10.8333 5C 10.8333 6.38333 9.71667 7.5 8.33333 7.5C 6.95 7.5 5.83333 6.38333 5.83333 5C 5.83333 3.61667 6.95 2.5 8.33333 2.5ZM 8.33333 14.3333C 6.25 14.3333 4.40833 13.2667 3.33333 11.65C 3.35833 9.99166 6.66667 9.08333 8.33333 9.08333C 9.99166 9.08333 13.3083 9.99166 13.3333 11.65C 12.2583 13.2667 10.4167 14.3333 8.33333 14.3333Z"/>
</defs>
</svg>
