<svg width="88" height="25" viewBox="0 0 88 25" xmlns="http://www.w3.org/2000/svg" xmlns:xlink="http://www.w3.org/1999/xlink"><use xlink:href="#a" transform="translate(0 -9)" fill="#FFF"/><defs><path id="a" d="M3.312 24.72C1.648 23.088.816 21.024.816 18.528s.832-4.552 2.496-6.168c1.68-1.632 3.728-2.448 6.144-2.448 1.872 0 3.536.496 4.992 1.488s2.472 2.368 3.048 4.128H12.6c-.64-1.232-1.664-1.848-3.072-1.848-1.408 0-2.52.44-3.336 1.32-.8.88-1.2 2.056-1.2 3.528s.4 2.648 1.2 3.528c.816.88 1.928 1.32 3.336 1.32s2.432-.616 3.072-1.848h4.896c-.576 1.76-1.592 3.136-3.048 4.128s-3.12 1.488-4.992 1.488c-2.416 0-4.464-.808-6.144-2.424zm20.92-15.48v6.336c.848-1.408 2.2-2.112 4.056-2.112 1.536 0 2.776.512 3.72 1.536.96 1.024 1.44 2.416 1.44 4.176V27h-4.08v-7.272c0-.864-.232-1.528-.696-1.992-.448-.48-1.072-.72-1.872-.72s-1.432.24-1.896.72c-.448.464-.672 1.128-.672 1.992V27h-4.104V9.24h4.104zm20.86 13.512c.593-.576.889-1.392.889-2.448s-.296-1.864-.888-2.424c-.592-.576-1.272-.864-2.04-.864s-1.448.288-2.04.864c-.592.576-.888 1.392-.888 2.448s.296 1.872.888 2.448c.592.56 1.272.84 2.04.84s1.448-.288 2.04-.864zm-7.367 2.496c-1.184-1.28-1.776-2.92-1.776-4.92s.592-3.64 1.776-4.92c1.184-1.296 2.624-1.944 4.32-1.944 1.712 0 3.024.632 3.936 1.896v-1.752h4.104V27H45.98v-1.944c-.992 1.408-2.32 2.112-3.984 2.112-1.664 0-3.088-.64-4.272-1.92zm21.654-1.728h1.464V27h-2.088c-1.504 0-2.672-.328-3.504-.984-.816-.672-1.224-1.816-1.224-3.432v-5.568h-1.248v-3.408h1.248v-3.264h4.104v3.264h2.688v3.408H58.13v5.568c0 .624.416.936 1.248.936zm9.96 0h1.465V27h-2.088c-1.504 0-2.672-.328-3.504-.984-.816-.672-1.224-1.816-1.224-3.432v-5.568H62.74v-3.408h1.248v-3.264h4.104v3.264h2.688v3.408h-2.688v5.568c0 .624.416.936 1.248.936zm7.778 3.216l-5.209-13.128h4.656l2.977 8.76 3.264-8.76H87.1l-8.543 19.776H74.26l2.856-6.648z"/></defs></svg>